<?xml version="1.0" encoding="UTF-8" standalone="no"?>
<!-- Created with Inkscape (http://www.inkscape.org/) -->

<svg
   xmlns:dc="http://purl.org/dc/elements/1.1/"
   xmlns:cc="http://creativecommons.org/ns#"
   xmlns:rdf="http://www.w3.org/1999/02/22-rdf-syntax-ns#"
   xmlns:svg="http://www.w3.org/2000/svg"
   xmlns="http://www.w3.org/2000/svg"
   xmlns:sodipodi="http://sodipodi.sourceforge.net/DTD/sodipodi-0.dtd"
   xmlns:inkscape="http://www.inkscape.org/namespaces/inkscape"
   width="16"
   height="16"
   id="svg2"
   version="1.1"
   inkscape:version="0.48.3.1 r9886"
   sodipodi:docname="format_list_unordered.svg">
  <defs
     id="defs4" />
  <sodipodi:namedview
     id="base"
     pagecolor="#ffffff"
     bordercolor="#666666"
     borderopacity="1.0"
     inkscape:pageopacity="0.0"
     inkscape:pageshadow="2"
     inkscape:zoom="32"
     inkscape:cx="14.081215"
     inkscape:cy="8.3911222"
     inkscape:document-units="px"
     inkscape:current-layer="layer1"
     showgrid="false"
     showguides="false"
     inkscape:guide-bbox="true"
     inkscape:showpageshadow="true"
     borderlayer="false"
     inkscape:window-width="1317"
     inkscape:window-height="744"
     inkscape:window-x="49"
     inkscape:window-y="24"
     inkscape:window-maximized="1">
    <inkscape:grid
       type="xygrid"
       id="grid2985"
       empspacing="2"
       visible="true"
       enabled="true"
       snapvisiblegridlinesonly="true"
       spacingx="0.5px"
       spacingy="0.5px"
       dotted="false" />
    <sodipodi:guide
       orientation="0,1"
       position="0,15"
       id="guide2987" />
    <sodipodi:guide
       orientation="1,0"
       position="1,16"
       id="guide2989" />
    <sodipodi:guide
       orientation="1,0"
       position="15,16"
       id="guide2991" />
    <sodipodi:guide
       orientation="0,1"
       position="0,1"
       id="guide2993" />
    <sodipodi:guide
       orientation="1,0"
       position="8,16"
       id="guide2995" />
    <sodipodi:guide
       orientation="0,1"
       position="0,8"
       id="guide2997" />
    <sodipodi:guide
       orientation="0,1"
       position="0,9"
       id="guide3188" />
  </sodipodi:namedview>
  <metadata
     id="metadata7">
    <rdf:RDF>
      <cc:Work
         rdf:about="">
        <dc:format>image/svg+xml</dc:format>
        <dc:type
           rdf:resource="http://purl.org/dc/dcmitype/StillImage" />
        <dc:title />
      </cc:Work>
    </rdf:RDF>
  </metadata>
  <g
     inkscape:label="Layer 1"
     inkscape:groupmode="layer"
     id="layer1"
     transform="translate(0,-1036.3622)">
    <path
       style="fill:#204a87;fill-opacity:1;stroke:none"
       d="M 3.5 1 C 2.6715729 1 2 1.6715729 2 2.5 C 2 3.3284271 2.6715729 4 3.5 4 C 4.3284271 4 5 3.3284271 5 2.5 C 5 1.6715729 4.3284271 1 3.5 1 z M 6 2 L 6 3 L 14 3 L 14 2 L 6 2 z M 3.5 6 C 2.6715729 6 2 6.6715729 2 7.5 C 2 8.3284271 2.6715729 9 3.5 9 C 4.3284271 9 5 8.3284271 5 7.5 C 5 6.6715729 4.3284271 6 3.5 6 z M 6 7 L 6 8 L 14 8 L 14 7 L 6 7 z M 3.5 11 C 2.6715729 11 2 11.671573 2 12.5 C 2 13.328427 2.6715729 14 3.5 14 C 4.3284271 14 5 13.328427 5 12.5 C 5 11.671573 4.3284271 11 3.5 11 z M 6 12 L 6 13 L 14 13 L 14 12 L 6 12 z "
       transform="translate(0,1036.3622)"
       id="rect4234-8" />
  </g>
</svg>
