<?xml version="1.0" encoding="UTF-8" standalone="no"?>
<!-- Created with Inkscape (http://www.inkscape.org/) -->

<svg
   xmlns:dc="http://purl.org/dc/elements/1.1/"
   xmlns:cc="http://creativecommons.org/ns#"
   xmlns:rdf="http://www.w3.org/1999/02/22-rdf-syntax-ns#"
   xmlns:svg="http://www.w3.org/2000/svg"
   xmlns="http://www.w3.org/2000/svg"
   xmlns:sodipodi="http://sodipodi.sourceforge.net/DTD/sodipodi-0.dtd"
   xmlns:inkscape="http://www.inkscape.org/namespaces/inkscape"
   width="16"
   height="16"
   id="svg2"
   version="1.1"
   inkscape:version="0.48.3.1 r9886"
   sodipodi:docname="format_list_ordered.svg">
  <defs
     id="defs4" />
  <sodipodi:namedview
     id="base"
     pagecolor="#ffffff"
     bordercolor="#666666"
     borderopacity="1.0"
     inkscape:pageopacity="0.0"
     inkscape:pageshadow="2"
     inkscape:zoom="32"
     inkscape:cx="2.542061"
     inkscape:cy="6.6591896"
     inkscape:document-units="px"
     inkscape:current-layer="layer1"
     showgrid="true"
     showguides="false"
     inkscape:guide-bbox="true"
     inkscape:showpageshadow="true"
     borderlayer="false"
     inkscape:window-width="1317"
     inkscape:window-height="744"
     inkscape:window-x="49"
     inkscape:window-y="24"
     inkscape:window-maximized="1">
    <inkscape:grid
       type="xygrid"
       id="grid2985"
       empspacing="2"
       visible="true"
       enabled="true"
       snapvisiblegridlinesonly="true"
       spacingx="0.5px"
       spacingy="0.5px"
       dotted="false" />
    <sodipodi:guide
       orientation="0,1"
       position="0,15"
       id="guide2987" />
    <sodipodi:guide
       orientation="1,0"
       position="1,16"
       id="guide2989" />
    <sodipodi:guide
       orientation="1,0"
       position="15,16"
       id="guide2991" />
    <sodipodi:guide
       orientation="0,1"
       position="0,1"
       id="guide2993" />
    <sodipodi:guide
       orientation="1,0"
       position="8,16"
       id="guide2995" />
    <sodipodi:guide
       orientation="0,1"
       position="0,8"
       id="guide2997" />
    <sodipodi:guide
       orientation="0,1"
       position="0,9"
       id="guide3188" />
  </sodipodi:namedview>
  <metadata
     id="metadata7">
    <rdf:RDF>
      <cc:Work
         rdf:about="">
        <dc:format>image/svg+xml</dc:format>
        <dc:type
           rdf:resource="http://purl.org/dc/dcmitype/StillImage" />
        <dc:title />
      </cc:Work>
    </rdf:RDF>
  </metadata>
  <g
     inkscape:label="Layer 1"
     inkscape:groupmode="layer"
     id="layer1"
     transform="translate(0,-1036.3622)">
    <path
       style="fill:#204a87;fill-opacity:1;stroke:none"
       d="M 2 1 L 1 2 L 1 3.5 L 2 2.5 L 2 5 L 3 5 L 3 1 L 2 1 z M 6 2 L 6 3 L 14 3 L 14 2 L 6 2 z M 4 4 L 4 5 L 5 5 L 5 4 L 4 4 z M 2.5 6 C 1 6 1 7.5 1 7.5 L 2 7.5 C 2 7.5 2 7 2.5 7 C 3 7 2.926424 7.4531 2.84375 7.75 C 2.5 8.9844 1.1875 9 1.1875 9 L 1.1875 10 L 4 10 L 4 9 L 3.1875 9 C 3.1875 9 4 8.5 4 7.5 C 4 7 4 6 2.5 6 z M 6 7 L 6 8 L 14 8 L 14 7 L 6 7 z M 5 9 L 5 10 L 6 10 L 6 9 L 5 9 z M 1 11 L 1 12 L 3 12 L 2 12.5 L 2 13.5 C 2 13.5 3 13.644876 3 13.84375 C 3 14.002547 2.5269622 14 2 14 L 1 14 L 1 15 C 1 15 4 15.144876 4 14.34375 C 4 13.716912 4.078342 13.519304 3.84375 13.34375 C 3.5800484 13.146412 3 13 3 13 L 4 12.5 L 4 11 L 1 11 z M 6 12 L 6 13 L 14 13 L 14 12 L 6 12 z M 5 14 L 5 15 L 6 15 L 6 14 L 5 14 z "
       transform="translate(0,1036.3622)"
       id="rect4234" />
  </g>
</svg>
