<?xml version="1.0" encoding="UTF-8" standalone="no"?>
<!-- Created with Inkscape (http://www.inkscape.org/) -->

<svg
   xmlns:dc="http://purl.org/dc/elements/1.1/"
   xmlns:cc="http://creativecommons.org/ns#"
   xmlns:rdf="http://www.w3.org/1999/02/22-rdf-syntax-ns#"
   xmlns:svg="http://www.w3.org/2000/svg"
   xmlns="http://www.w3.org/2000/svg"
   xmlns:sodipodi="http://sodipodi.sourceforge.net/DTD/sodipodi-0.dtd"
   xmlns:inkscape="http://www.inkscape.org/namespaces/inkscape"
   width="16"
   height="16"
   id="svg2"
   version="1.1"
   inkscape:version="0.48.2 r9819"
   sodipodi:docname="strikethrough.svg">
  <defs
     id="defs4" />
  <sodipodi:namedview
     id="base"
     pagecolor="#ffffff"
     bordercolor="#666666"
     borderopacity="1.0"
     inkscape:pageopacity="0.0"
     inkscape:pageshadow="2"
     inkscape:zoom="32"
     inkscape:cx="8.2120544"
     inkscape:cy="3.9458886"
     inkscape:document-units="px"
     inkscape:current-layer="layer1"
     showgrid="true"
     showguides="false"
     inkscape:guide-bbox="true"
     inkscape:showpageshadow="true"
     borderlayer="false"
     inkscape:window-width="686"
     inkscape:window-height="649"
     inkscape:window-x="1508"
     inkscape:window-y="223"
     inkscape:window-maximized="0">
    <inkscape:grid
       type="xygrid"
       id="grid2985"
       empspacing="2"
       visible="true"
       enabled="true"
       snapvisiblegridlinesonly="true"
       spacingx="0.5px"
       spacingy="0.5px"
       dotted="false" />
    <sodipodi:guide
       orientation="0,1"
       position="0,15"
       id="guide2987" />
    <sodipodi:guide
       orientation="1,0"
       position="1,16"
       id="guide2989" />
    <sodipodi:guide
       orientation="1,0"
       position="15,16"
       id="guide2991" />
    <sodipodi:guide
       orientation="0,1"
       position="0,1"
       id="guide2993" />
    <sodipodi:guide
       orientation="1,0"
       position="8,16"
       id="guide2995" />
    <sodipodi:guide
       orientation="0,1"
       position="0,8"
       id="guide2997" />
    <sodipodi:guide
       orientation="0,1"
       position="0,9"
       id="guide3188" />
  </sodipodi:namedview>
  <metadata
     id="metadata7">
    <rdf:RDF>
      <cc:Work
         rdf:about="">
        <dc:format>image/svg+xml</dc:format>
        <dc:type
           rdf:resource="http://purl.org/dc/dcmitype/StillImage" />
        <dc:title />
      </cc:Work>
    </rdf:RDF>
  </metadata>
  <g
     inkscape:label="Layer 1"
     inkscape:groupmode="layer"
     id="layer1"
     transform="translate(0,-1036.3622)">
    <path
       style="fill:#204a87;stroke:none"
       d="M 7 3 L 6 3.5 L 6 4.5 L 6 5 L 6 5.5 L 6 11 L 7 11 L 7 10.5 C 7 11 8 11 8 11 L 9 11 C 9 11 10 11 10 8.5 C 10 6 8 6 8 6 L 7 6 L 7 3 z M 3 6 C 1 6 1 7.5 1 7.5 L 2 7.5 C 2 7.5 2 7 3 7 C 4 7 4 8 4 8 L 2.5 8 C 1.5 8 1 8.9936 1 9.5 C 1 11 1.5 11 2.5 11 C 4 11 4 10 4 10 C 4 10 4 11 4.5 11 L 5.5 11 L 5.5 10 C 5.5 10 5 10 5 9.5 L 5 8 C 5 7 4.5 6 3 6 z M 13 6 C 11 6 11 8 11 8 L 11 9 C 11 9 11 11 13 11 C 15 11 14.96875 9.3125 14.96875 9.3125 L 13.96875 9.3125 C 13.96875 9.3125 14.000003 10 13 10 C 12 10 12 9 12 9 L 12 8 C 12 8 12 7 13 7 C 13.588388 7 13.84375 7.40625 13.84375 7.40625 L 14.71875 7 C 14.71875 7 14.5 6 13 6 z M 7 7 L 8 7 C 8 7 9 7 9 8.5 C 9 10 8 10 8 10 C 8 10 7 10 7 8.5 L 7 7 z M 2.5 9 L 3.5 9 L 4 9 C 4 10 2.5 10 2.5 10 C 2.5 10 2 10 2 9.5 C 2 9 2.5 9 2.5 9 z "
       transform="translate(0,1036.3622)"
       id="path6503" />
    <path
       style="fill:#204a87;stroke:none"
       d="m 0,1044.3622 15,0 0,1 -15,0 z"
       id="path6529"
       inkscape:connector-curvature="0" />
  </g>
</svg>
