<?xml version="1.0" encoding="UTF-8" standalone="no"?>
<!-- Created with Inkscape (http://www.inkscape.org/) -->

<svg
   xmlns:dc="http://purl.org/dc/elements/1.1/"
   xmlns:cc="http://creativecommons.org/ns#"
   xmlns:rdf="http://www.w3.org/1999/02/22-rdf-syntax-ns#"
   xmlns:svg="http://www.w3.org/2000/svg"
   xmlns="http://www.w3.org/2000/svg"
   xmlns:sodipodi="http://sodipodi.sourceforge.net/DTD/sodipodi-0.dtd"
   xmlns:inkscape="http://www.inkscape.org/namespaces/inkscape"
   width="16"
   height="16"
   id="svg2"
   version="1.1"
   inkscape:version="0.48.2 r9819"
   sodipodi:docname="abc.svg">
  <defs
     id="defs4" />
  <sodipodi:namedview
     id="base"
     pagecolor="#ffffff"
     bordercolor="#666666"
     borderopacity="1.0"
     inkscape:pageopacity="0.0"
     inkscape:pageshadow="2"
     inkscape:zoom="11.313708"
     inkscape:cx="11.645047"
     inkscape:cy="0.93180786"
     inkscape:document-units="px"
     inkscape:current-layer="layer1"
     showgrid="false"
     showguides="false"
     inkscape:guide-bbox="true"
     inkscape:showpageshadow="true"
     borderlayer="false"
     inkscape:window-width="1280"
     inkscape:window-height="1000"
     inkscape:window-x="1280"
     inkscape:window-y="24"
     inkscape:window-maximized="1">
    <inkscape:grid
       type="xygrid"
       id="grid2985"
       empspacing="2"
       visible="true"
       enabled="true"
       snapvisiblegridlinesonly="true"
       spacingx="0.5px"
       spacingy="0.5px"
       dotted="false" />
    <sodipodi:guide
       orientation="0,1"
       position="0,15"
       id="guide2987" />
    <sodipodi:guide
       orientation="1,0"
       position="1,16"
       id="guide2989" />
    <sodipodi:guide
       orientation="1,0"
       position="15,16"
       id="guide2991" />
    <sodipodi:guide
       orientation="0,1"
       position="0,1"
       id="guide2993" />
    <sodipodi:guide
       orientation="1,0"
       position="8,16"
       id="guide2995" />
    <sodipodi:guide
       orientation="0,1"
       position="0,8"
       id="guide2997" />
    <sodipodi:guide
       orientation="0,1"
       position="0,9"
       id="guide3188" />
  </sodipodi:namedview>
  <metadata
     id="metadata7">
    <rdf:RDF>
      <cc:Work
         rdf:about="">
        <dc:format>image/svg+xml</dc:format>
        <dc:type
           rdf:resource="http://purl.org/dc/dcmitype/StillImage" />
        <dc:title></dc:title>
      </cc:Work>
    </rdf:RDF>
  </metadata>
  <g
     inkscape:label="Layer 1"
     inkscape:groupmode="layer"
     id="layer1"
     transform="translate(0,-1036.3622)">
    <path
       style="fill:#204a87;stroke:none"
       d="M 3 5 C 1 5 1 8 1 8 L 1 10 L 2 10 L 2 9 L 4 9 L 4 10 L 5 10 L 5 8 C 5 8 5 5 3 5 z M 6 5 L 6 10 L 8.5 10 C 8.5 10 10 10 10 8.5 C 10 8 9.5 7.5 9.5 7.5 C 9.5 7.5 10 7 10 6.5 C 10 5 8.5 5 8.5 5 L 6 5 z M 13 5 C 11 5 11 7 11 7 L 11 8 C 11 8 11 10 13 10 C 15 10 15 8 15 8 L 14 8 C 14 8 14 9 13 9 C 12 9 12 8 12 8 L 12 7 C 12 7 12 6 13 6 C 14 6 14 7 14 7 L 15 7 C 15 7 15 5 13 5 z M 3 6 C 4 6 4 8 4 8 L 2 8 C 2 8 2 6 3 6 z M 7 6 L 8.5 6 C 8.5 6 9 6 9 6.5 C 9 7 8.5 7 8.5 7 L 7 7 L 7 6 z M 7 8 L 8.5 8 C 8.5 8 9 8 9 8.5 C 9 9 8.5 9 8.5 9 L 7 9 L 7 8 z "
       transform="translate(0,1036.3622)"
       id="path6436" />
  </g>
</svg>
