<?xml version="1.0" encoding="UTF-8" standalone="no"?>
<!-- Created with Inkscape (http://www.inkscape.org/) -->

<svg
   xmlns:dc="http://purl.org/dc/elements/1.1/"
   xmlns:cc="http://creativecommons.org/ns#"
   xmlns:rdf="http://www.w3.org/1999/02/22-rdf-syntax-ns#"
   xmlns:svg="http://www.w3.org/2000/svg"
   xmlns="http://www.w3.org/2000/svg"
   xmlns:sodipodi="http://sodipodi.sourceforge.net/DTD/sodipodi-0.dtd"
   xmlns:inkscape="http://www.inkscape.org/namespaces/inkscape"
   width="16"
   height="16"
   id="svg2"
   version="1.1"
   inkscape:version="0.48.2 r9819"
   sodipodi:docname="_template_16px.svg">
  <defs
     id="defs4" />
  <sodipodi:namedview
     id="base"
     pagecolor="#ffffff"
     bordercolor="#666666"
     borderopacity="1.0"
     inkscape:pageopacity="0.0"
     inkscape:pageshadow="2"
     inkscape:zoom="22.627417"
     inkscape:cx="11.76426"
     inkscape:cy="9.5219091"
     inkscape:document-units="px"
     inkscape:current-layer="layer1"
     showgrid="false"
     showguides="false"
     inkscape:guide-bbox="true"
     inkscape:showpageshadow="true"
     borderlayer="false"
     inkscape:window-width="1280"
     inkscape:window-height="1000"
     inkscape:window-x="1280"
     inkscape:window-y="24"
     inkscape:window-maximized="1">
    <inkscape:grid
       type="xygrid"
       id="grid2985"
       empspacing="2"
       visible="true"
       enabled="true"
       snapvisiblegridlinesonly="true"
       spacingx="0.5px"
       spacingy="0.5px"
       dotted="false" />
    <sodipodi:guide
       orientation="0,1"
       position="0,15"
       id="guide2987" />
    <sodipodi:guide
       orientation="1,0"
       position="1,16"
       id="guide2989" />
    <sodipodi:guide
       orientation="1,0"
       position="15,16"
       id="guide2991" />
    <sodipodi:guide
       orientation="0,1"
       position="0,1"
       id="guide2993" />
    <sodipodi:guide
       orientation="1,0"
       position="8,16"
       id="guide2995" />
    <sodipodi:guide
       orientation="0,1"
       position="0,8"
       id="guide2997" />
  </sodipodi:namedview>
  <metadata
     id="metadata7">
    <rdf:RDF>
      <cc:Work
         rdf:about="">
        <dc:format>image/svg+xml</dc:format>
        <dc:type
           rdf:resource="http://purl.org/dc/dcmitype/StillImage" />
        <dc:title></dc:title>
      </cc:Work>
    </rdf:RDF>
  </metadata>
  <g
     inkscape:label="Layer 1"
     inkscape:groupmode="layer"
     id="layer1"
     transform="translate(0,-1036.3622)">
    <path
       style="fill:#2e3436;stroke:none"
       d="M 2 1 C 1 1 1 2 1 2 L 1 13 L 3 15 L 4 15 L 4 11 C 4 11 4.0133929 10 5.15625 10 L 10.84375 10 C 10.84375 10 12 10 12 11 L 12 15 L 14 15 C 14 15 15 15 15 14 L 15 2 C 15 2 15 1 14 1 L 13.5 1 L 13 1 L 3 1 L 2.5 1 L 2 1 z M 3 1.5 L 13 1.5 L 13 8 C 13 9 12 9 12 9 L 4 9 C 3 9 3 8 3 8 L 3 1.5 z M 13.5 2 L 14.5 2 L 14.5 3 L 13.5 3 L 13.5 2 z M 4 3 L 4 4 L 12 4 L 12 3 L 4 3 z M 4 5 L 4 6 L 12 6 L 12 5 L 4 5 z M 5 11 L 5 15 L 7 15 L 7 11 L 5 11 z "
       transform="translate(0,1036.3622)"
       id="path2991" />
  </g>
</svg>
