<?xml version="1.0" encoding="UTF-8" standalone="no"?>
<!-- Created with Inkscape (http://www.inkscape.org/) -->

<svg
   xmlns:dc="http://purl.org/dc/elements/1.1/"
   xmlns:cc="http://creativecommons.org/ns#"
   xmlns:rdf="http://www.w3.org/1999/02/22-rdf-syntax-ns#"
   xmlns:svg="http://www.w3.org/2000/svg"
   xmlns="http://www.w3.org/2000/svg"
   xmlns:sodipodi="http://sodipodi.sourceforge.net/DTD/sodipodi-0.dtd"
   xmlns:inkscape="http://www.inkscape.org/namespaces/inkscape"
   width="16"
   height="16"
   id="svg2"
   version="1.1"
   inkscape:version="0.48.3.1 r9886"
   sodipodi:docname="message_information.svg">
  <defs
     id="defs4" />
  <sodipodi:namedview
     id="base"
     pagecolor="#ffffff"
     bordercolor="#666666"
     borderopacity="1.0"
     inkscape:pageopacity="0.0"
     inkscape:pageshadow="2"
     inkscape:zoom="8"
     inkscape:cx="10.092621"
     inkscape:cy="21.409334"
     inkscape:document-units="px"
     inkscape:current-layer="layer1"
     showgrid="false"
     showguides="false"
     inkscape:guide-bbox="true"
     inkscape:showpageshadow="true"
     borderlayer="false"
     inkscape:window-width="1317"
     inkscape:window-height="744"
     inkscape:window-x="49"
     inkscape:window-y="24"
     inkscape:window-maximized="1">
    <inkscape:grid
       type="xygrid"
       id="grid2985"
       empspacing="2"
       visible="true"
       enabled="true"
       snapvisiblegridlinesonly="true"
       spacingx="0.5px"
       spacingy="0.5px"
       dotted="false" />
    <sodipodi:guide
       orientation="0,1"
       position="0,15"
       id="guide2987" />
    <sodipodi:guide
       orientation="1,0"
       position="1,16"
       id="guide2989" />
    <sodipodi:guide
       orientation="1,0"
       position="15,16"
       id="guide2991" />
    <sodipodi:guide
       orientation="0,1"
       position="0,1"
       id="guide2993" />
    <sodipodi:guide
       orientation="1,0"
       position="8,16"
       id="guide2995" />
    <sodipodi:guide
       orientation="0,1"
       position="0,8"
       id="guide2997" />
  </sodipodi:namedview>
  <metadata
     id="metadata7">
    <rdf:RDF>
      <cc:Work
         rdf:about="">
        <dc:format>image/svg+xml</dc:format>
        <dc:type
           rdf:resource="http://purl.org/dc/dcmitype/StillImage" />
        <dc:title></dc:title>
      </cc:Work>
    </rdf:RDF>
  </metadata>
  <g
     inkscape:label="Layer 1"
     inkscape:groupmode="layer"
     id="layer1"
     transform="translate(0,-1036.3622)">
    <path
       style="fill:#0197fd;fill-opacity:1;stroke:none"
       d="M 2 2 L 2 10 L 8 10 L 7 14 L 11 10 L 14 10 L 14 2 L 2 2 z M 8 2.5 C 11 2.5 11 4.5 11 4.5 C 11 4.5 11 5.5 10 6 C 9 6.5 9 7 9 7 L 7 7 C 7 7 7 6 8 5.5 C 9 5 9 4.5 9 4.5 C 9 4.5 9 3.5 8 3.5 C 7 3.5 7 4.5 7 4.5 L 5 4.5 C 5 4.5 5 2.5 8 2.5 z M 8 7.5 C 8.5522847 7.5 9 7.9477153 9 8.5 C 9 9.0522847 8.5522847 9.5 8 9.5 C 7.4477153 9.5 7 9.0522847 7 8.5 C 7 7.9477153 7.4477153 7.5 8 7.5 z "
       transform="translate(0,1036.3622)"
       id="rect3726" />
  </g>
</svg>
