<?xml version="1.0" encoding="UTF-8" standalone="no"?>
<!-- Created with Inkscape (http://www.inkscape.org/) -->

<svg
   xmlns:dc="http://purl.org/dc/elements/1.1/"
   xmlns:cc="http://creativecommons.org/ns#"
   xmlns:rdf="http://www.w3.org/1999/02/22-rdf-syntax-ns#"
   xmlns:svg="http://www.w3.org/2000/svg"
   xmlns="http://www.w3.org/2000/svg"
   xmlns:sodipodi="http://sodipodi.sourceforge.net/DTD/sodipodi-0.dtd"
   xmlns:inkscape="http://www.inkscape.org/namespaces/inkscape"
   width="16"
   height="16"
   id="svg2"
   version="1.1"
   inkscape:version="0.48.2 r9819"
   sodipodi:docname="message_help.svg">
  <defs
     id="defs4" />
  <sodipodi:namedview
     id="base"
     pagecolor="#ffffff"
     bordercolor="#666666"
     borderopacity="1.0"
     inkscape:pageopacity="0.0"
     inkscape:pageshadow="2"
     inkscape:zoom="45.254834"
     inkscape:cx="10.011667"
     inkscape:cy="4.5921702"
     inkscape:document-units="px"
     inkscape:current-layer="layer1"
     showgrid="false"
     showguides="false"
     inkscape:guide-bbox="true"
     inkscape:showpageshadow="true"
     borderlayer="false"
     inkscape:window-width="1024"
     inkscape:window-height="1256"
     inkscape:window-x="0"
     inkscape:window-y="24"
     inkscape:window-maximized="1">
    <inkscape:grid
       type="xygrid"
       id="grid2985"
       empspacing="2"
       visible="true"
       enabled="true"
       snapvisiblegridlinesonly="true"
       spacingx="0.5px"
       spacingy="0.5px"
       dotted="false" />
    <sodipodi:guide
       orientation="0,1"
       position="0,15"
       id="guide2987" />
    <sodipodi:guide
       orientation="1,0"
       position="1,16"
       id="guide2989" />
    <sodipodi:guide
       orientation="1,0"
       position="15,16"
       id="guide2991" />
    <sodipodi:guide
       orientation="0,1"
       position="0,1"
       id="guide2993" />
    <sodipodi:guide
       orientation="1,0"
       position="8,16"
       id="guide2995" />
    <sodipodi:guide
       orientation="0,1"
       position="0,8"
       id="guide2997" />
  </sodipodi:namedview>
  <metadata
     id="metadata7">
    <rdf:RDF>
      <cc:Work
         rdf:about="">
        <dc:format>image/svg+xml</dc:format>
        <dc:type
           rdf:resource="http://purl.org/dc/dcmitype/StillImage" />
        <dc:title />
      </cc:Work>
    </rdf:RDF>
  </metadata>
  <g
     inkscape:label="Layer 1"
     inkscape:groupmode="layer"
     id="layer1"
     transform="translate(0,-1036.3622)">
    <path
       style="fill:#0197fd;fill-opacity:1;stroke:none"
       d="M 3.5,2 C 2.669,2 2,2.669 2,3.5 l 0,6 C 2,10.331 2.669,11 3.5,11 l 3.5,0 0,4 4,-4 1.5,0 C 13.331,11 14,10.331 14,9.5 l 0,-6 C 14,2.669 13.331,2 12.5,2 L 12,2 4,2 z M 8,2.5 c 3,0 3,2 3,2 0,0 0,1 -1,1.5 C 9,6.5 9,7 9,7 L 9,7.5 7,7.5 7,7 C 7,7 7,6 8,5.5 9,5 9,4.5 9,4.5 c 0,0 0,-1 -1,-1 -1,0 -1,1 -1,1 l -2,0 c 0,0 0,-2 3,-2 z M 8,8 C 8.5522847,8 9,8.4477153 9,9 9,9.5522847 8.5522847,10 8,10 7.4477153,10 7,9.5522847 7,9 7,8.4477153 7.4477153,8 8,8 z"
       transform="translate(0,1036.3622)"
       id="rect3726"
       inkscape:connector-curvature="0"
       sodipodi:nodetypes="sssscccssssccsscsccccscsccssssss" />
  </g>
</svg>
