<?xml version="1.0" encoding="UTF-8" standalone="no"?>
<!-- Created with Inkscape (http://www.inkscape.org/) -->

<svg
   xmlns:dc="http://purl.org/dc/elements/1.1/"
   xmlns:cc="http://creativecommons.org/ns#"
   xmlns:rdf="http://www.w3.org/1999/02/22-rdf-syntax-ns#"
   xmlns:svg="http://www.w3.org/2000/svg"
   xmlns="http://www.w3.org/2000/svg"
   xmlns:sodipodi="http://sodipodi.sourceforge.net/DTD/sodipodi-0.dtd"
   xmlns:inkscape="http://www.inkscape.org/namespaces/inkscape"
   width="16"
   height="16"
   id="svg2"
   version="1.1"
   inkscape:version="0.48.2 r9819"
   sodipodi:docname="sign_bed.svg">
  <defs
     id="defs4" />
  <sodipodi:namedview
     id="base"
     pagecolor="#ffffff"
     bordercolor="#666666"
     borderopacity="1.0"
     inkscape:pageopacity="0.0"
     inkscape:pageshadow="2"
     inkscape:zoom="45.254834"
     inkscape:cx="8.9162821"
     inkscape:cy="3.9713263"
     inkscape:document-units="px"
     inkscape:current-layer="layer1"
     showgrid="false"
     showguides="false"
     inkscape:guide-bbox="true"
     inkscape:showpageshadow="true"
     borderlayer="false"
     inkscape:window-width="974"
     inkscape:window-height="1256"
     inkscape:window-x="50"
     inkscape:window-y="24"
     inkscape:window-maximized="1">
    <inkscape:grid
       type="xygrid"
       id="grid2985"
       empspacing="2"
       visible="true"
       enabled="true"
       snapvisiblegridlinesonly="true"
       spacingx="0.5px"
       spacingy="0.5px"
       dotted="false" />
    <sodipodi:guide
       orientation="0,1"
       position="0,15"
       id="guide2987" />
    <sodipodi:guide
       orientation="1,0"
       position="1,16"
       id="guide2989" />
    <sodipodi:guide
       orientation="1,0"
       position="15,16"
       id="guide2991" />
    <sodipodi:guide
       orientation="0,1"
       position="0,1"
       id="guide2993" />
    <sodipodi:guide
       orientation="1,0"
       position="8,16"
       id="guide2995" />
    <sodipodi:guide
       orientation="0,1"
       position="0,8"
       id="guide2997" />
  </sodipodi:namedview>
  <metadata
     id="metadata7">
    <rdf:RDF>
      <cc:Work
         rdf:about="">
        <dc:format>image/svg+xml</dc:format>
        <dc:type
           rdf:resource="http://purl.org/dc/dcmitype/StillImage" />
        <dc:title></dc:title>
      </cc:Work>
    </rdf:RDF>
  </metadata>
  <g
     inkscape:label="Layer 1"
     inkscape:groupmode="layer"
     id="layer1"
     transform="translate(0,-1036.3622)">
    <path
       style="fill:#204a87;stroke:none"
       d="m 7.4302427,1042.8622 c 0.080517,0.2659 0.069757,0.5 0.069757,0.5 0,0 0,1.5 -1.5,1.5 l 6.5,0 0,-1 c 0,0 0,-1 -1,-1 z"
       id="path3216"
       inkscape:connector-curvature="0"
       sodipodi:nodetypes="cccccsc" />
    <path
       style="fill:#204a87;stroke:none;stroke-width:1px;stroke-linecap:butt;stroke-linejoin:miter;stroke-opacity:1"
       d="m 1,8 0,6 2,0 0,-3 10,0 0,3 2,0 0,-6 C 15,8 15,7 14,7 13,7 13,8 13,8 L 13,9 3,9 3,5 C 3,5 3,4 2,4 1,4 1,5 1,5 z"
       id="path3212"
       inkscape:connector-curvature="0"
       transform="translate(0,1036.3622)" />
    <path
       inkscape:connector-curvature="0"
       id="path3237"
       d="m 3.5,1043.3622 c 0,0 0,-1.5 1.5,-1.5 1.5,0 1.5,1.5 1.5,1.5 0,0 0,1.5 -1.5,1.5 -1.5,0 -1.5,-1.5 -1.5,-1.5 z"
       style="fill:#204a87;stroke:none" />
  </g>
</svg>
