<?xml version="1.0" encoding="UTF-8" standalone="no"?>
<!-- Created with Inkscape (http://www.inkscape.org/) -->

<svg
   xmlns:dc="http://purl.org/dc/elements/1.1/"
   xmlns:cc="http://creativecommons.org/ns#"
   xmlns:rdf="http://www.w3.org/1999/02/22-rdf-syntax-ns#"
   xmlns:svg="http://www.w3.org/2000/svg"
   xmlns="http://www.w3.org/2000/svg"
   xmlns:sodipodi="http://sodipodi.sourceforge.net/DTD/sodipodi-0.dtd"
   xmlns:inkscape="http://www.inkscape.org/namespaces/inkscape"
   width="384"
   height="64"
   id="svg2"
   version="1.1"
   inkscape:version="0.48.3.1 r9886"
   sodipodi:docname="logo.svg"
   inkscape:export-filename="/home/timon/.dropboxData/Dropbox/projects/tiicon/logo.png"
   inkscape:export-xdpi="97"
   inkscape:export-ydpi="97">
  <defs
     id="defs4" />
  <sodipodi:namedview
     id="base"
     pagecolor="#ffffff"
     bordercolor="#666666"
     borderopacity="1.0"
     inkscape:pageopacity="0.0"
     inkscape:pageshadow="2"
     inkscape:zoom="2"
     inkscape:cx="193.72126"
     inkscape:cy="83.949301"
     inkscape:document-units="px"
     inkscape:current-layer="layer1"
     showgrid="true"
     fit-margin-top="0"
     fit-margin-left="0"
     fit-margin-right="0"
     fit-margin-bottom="0"
     inkscape:window-width="1317"
     inkscape:window-height="744"
     inkscape:window-x="49"
     inkscape:window-y="24"
     inkscape:window-maximized="1">
    <inkscape:grid
       type="xygrid"
       id="grid2989"
       empspacing="5"
       visible="true"
       enabled="true"
       snapvisiblegridlinesonly="true"
       spacingx="16px"
       spacingy="16px"
       originx="-176px"
       originy="-608px" />
  </sodipodi:namedview>
  <metadata
     id="metadata7">
    <rdf:RDF>
      <cc:Work
         rdf:about="">
        <dc:format>image/svg+xml</dc:format>
        <dc:type
           rdf:resource="http://purl.org/dc/dcmitype/StillImage" />
        <dc:title></dc:title>
      </cc:Work>
    </rdf:RDF>
  </metadata>
  <g
     inkscape:label="Layer 1"
     inkscape:groupmode="layer"
     id="layer1"
     transform="translate(-176,-380.36218)">
    <rect
       style="fill:#ffffff;fill-opacity:1;stroke:none"
       id="rect3821"
       width="352"
       height="48"
       x="192"
       y="396.36218" />
    <text
       xml:space="preserve"
       style="font-size:42.33730316px;font-style:normal;font-variant:normal;font-weight:600;font-stretch:normal;text-align:start;line-height:125%;letter-spacing:0px;word-spacing:0px;text-anchor:start;fill:#333333;fill-opacity:1;stroke:none;font-family:Source Sans Pro;-inkscape-font-specification:Source Sans Pro Semi-Bold"
       x="398"
       y="428.36218"
       id="text2985"
       sodipodi:linespacing="125%"><tspan
         sodipodi:role="line"
         id="tspan2987"
         x="398"
         y="428.36218">Tiicon</tspan></text>
    <rect
       style="fill:#ffffff;fill-opacity:1;stroke:none"
       id="rect3003"
       width="32"
       height="32"
       x="192"
       y="396.36218"
       ry="0" />
    <g
       id="g3838"
       transform="matrix(2,0,0,2,192,-1716.3622)">
      <path
         style="font-size:medium;font-style:normal;font-variant:normal;font-weight:normal;font-stretch:normal;text-indent:0;text-align:start;text-decoration:none;line-height:normal;letter-spacing:normal;word-spacing:normal;text-transform:none;direction:ltr;block-progression:tb;writing-mode:lr-tb;text-anchor:start;baseline-shift:baseline;color:#000000;fill:#006633;fill-opacity:1;fill-rule:nonzero;stroke:none;stroke-width:1px;marker:none;visibility:visible;display:inline;overflow:visible;enable-background:accumulate;font-family:Sans;-inkscape-font-specification:Sans"
         d="m 7.28125,1 c -2.4978667,2.4978667 -4.8060632,4.8060632 -7,7 2.495692,2.410535 4.9004991,4.864994 7,7 1.627857,0 2.868957,0 4.4375,0 C 10.047231,13.327751 8.365678,11.66556 6.6875,10 L 15,10 15,6 6.6875,6 C 8.3639221,4.3325606 10.016653,2.6413079 11.71875,1 10.220236,1 8.5962795,1 7.28125,1 z"
         transform="translate(0,1056.3622)"
         id="path3821"
         inkscape:connector-curvature="0"
         sodipodi:nodetypes="cccccccccc" />
    </g>
    <text
       sodipodi:linespacing="125%"
       id="text3011"
       y="428.36218"
       x="514"
       style="font-size:42.33730316px;font-style:normal;font-variant:normal;font-weight:600;font-stretch:normal;text-align:start;line-height:125%;letter-spacing:0px;word-spacing:0px;text-anchor:start;fill:#333333;fill-opacity:1;stroke:none;font-family:Source Sans Pro;-inkscape-font-specification:Source Sans Pro Semi-Bold"
       xml:space="preserve"><tspan
         y="428.36218"
         x="514"
         id="tspan3013"
         sodipodi:role="line">2</tspan></text>
    <rect
       style="fill:#ffffff;fill-opacity:1;stroke:none"
       id="rect2992"
       width="32"
       height="32"
       x="240"
       y="396.36218" />
    <path
       style="fill:#f44800;fill-opacity:1;stroke:none"
       d="m 242,398.38782 0,6 c 12.15026,0 22,9.84972 22,22 l 6,0 c 0,-15.46396 -12.53602,-28 -28,-28 z m 0,10 0,6 c 6.62742,0 12,5.37258 12,12 l 6,0 c 0,-9.94112 -8.05888,-18 -18,-18 z m 3.5,11 c -1.933,0 -3.5,1.567 -3.5,3.5 0,1.933 1.567,3.5 3.5,3.5 1.933,0 3.5,-1.567 3.5,-3.5 0,-1.933 -1.567,-3.5 -3.5,-3.5 z"
       id="path3542"
       inkscape:connector-curvature="0" />
    <rect
       style="fill:#ffffff;fill-opacity:1;stroke:none"
       id="rect2990"
       width="32"
       height="32"
       x="288"
       y="396.36218" />
    <path
       inkscape:connector-curvature="0"
       style="fill:#888a85;fill-opacity:1;stroke:none"
       d="m 304,396.36218 c -8.83656,0 -16,7.16344 -16,16 0,8.83656 7.16344,16 16,16 8.83656,0 16,-7.16344 16,-16 0,-8.83656 -7.16344,-16 -16,-16 z m 4.625,2.8125 c 1.7676,0.6152 3.38526,1.5264 4.75,2.75 l -5.375,6 c -0.57396,-0.51756 -1.2579,-0.9213 -2,-1.1875 l 2.625,-7.5625 z m 7.375,6 c 0.92066,1.5358 1.53778,3.2804 1.8125,5.125 l -7.875,1.1875 c -0.1178,-0.7872 -0.42012,-1.53148 -0.8125,-2.1875 l 6.875,-4.125 z m -12,3.1875 c 2.20914,0 4,1.79086 4,4 0,2.20914 -1.79086,4 -4,4 -2.20914,0 -4,-1.79086 -4,-4 0,-2.20914 1.79086,-4 4,-4 z m -5.9375,4.875 c 0.1206,0.80636 0.40454,1.58208 0.8125,2.25 l -6.875,4.125 c -0.93364,-1.546 -1.5354,-3.3271 -1.8125,-5.1875 l 7.875,-1.1875 z m 1.9375,3.5625 c 0.57396,0.51756 1.2579,0.9213 2,1.1875 l -2.625,7.5625 c -1.7676,-0.6152 -3.38526,-1.5264 -4.75,-2.75 l 5.375,-6 z"
       id="path3094" />
    <rect
       style="fill:#ffffff;fill-opacity:1;stroke:none"
       id="rect2990-1"
       width="32"
       height="32"
       x="336"
       y="396.36218" />
    <path
       inkscape:connector-curvature="0"
       style="font-size:medium;font-style:normal;font-variant:normal;font-weight:normal;font-stretch:normal;text-indent:0;text-align:start;text-decoration:none;line-height:normal;letter-spacing:normal;word-spacing:normal;text-transform:none;direction:ltr;block-progression:tb;writing-mode:lr-tb;text-anchor:start;baseline-shift:baseline;color:#000000;fill:#336699;fill-opacity:1;stroke:none;stroke-width:2;marker:none;visibility:visible;display:inline;overflow:visible;enable-background:accumulate;font-family:Sans;-inkscape-font-specification:Sans"
       d="m 338,398.36218 0,2 0,24 0,2 2,0 24,0 2,0 0,-2 0,-24 0,-2 -2,0 -24,0 -2,0 z m 4,4 20,0 0,20 -20,0 0,-20 z m 14,4 -6,6 -2,-2 -4,0 0,2 6,6 10,-10 0,-2 -4,0 z"
       id="path3773" />
  </g>
</svg>
